<?xml version="1.0" standalone="no"?>
<!DOCTYPE svg PUBLIC "-//W3C//DTD SVG 20010904//EN"
 "http://www.w3.org/TR/2001/REC-SVG-20010904/DTD/svg10.dtd">
<svg version="1.0" xmlns="http://www.w3.org/2000/svg"
 width="200.000000pt" height="200.000000pt" viewBox="0 0 200.000000 200.000000"
 preserveAspectRatio="xMidYMid meet">

<g transform="translate(0.000000,200.000000) scale(0.100000,-0.100000)"
fill="#000000" stroke="none">
<path d="M0 1000 l0 -1000 1000 0 1000 0 0 1000 0 1000 -1000 0 -1000 0 0
-1000z m874 823 c4 -4 22 -8 39 -9 20 -1 39 -11 52 -26 11 -14 28 -28 38 -31
9 -4 22 -18 29 -32 9 -21 9 -29 -4 -42 -20 -19 -38 -10 -31 17 4 16 0 20 -19
20 -17 0 -27 8 -35 31 -11 29 -15 31 -46 25 -25 -5 -38 -2 -48 10 -12 14 -14
14 -25 -1 -9 -12 -21 -16 -38 -11 -14 3 -34 1 -45 -6 -16 -10 -25 -9 -45 1
-21 11 -28 12 -41 1 -21 -18 -19 -47 6 -60 27 -15 19 -34 -16 -40 -15 -3 -33
-13 -39 -24 -16 -27 -55 -66 -66 -66 -23 0 -7 42 30 82 27 29 38 49 34 61 -17
53 44 110 93 88 17 -8 30 -8 44 0 11 5 28 7 39 4 10 -3 21 -1 25 5 7 11 58 14
69 3z m-114 -119 c0 -8 -7 -14 -15 -14 -15 0 -21 21 -9 33 10 9 24 -2 24 -19z
m56 -69 c4 -8 13 -15 20 -15 8 0 17 7 20 15 8 20 34 19 34 -2 0 -25 -30 -53
-56 -53 -25 0 -60 42 -49 60 9 15 25 12 31 -5z m164 0 c0 -8 -7 -15 -15 -15
-8 0 -15 7 -15 15 0 8 7 15 15 15 8 0 15 -7 15 -15z m113 -18 c18 -24 20 -31
9 -60 -7 -18 -12 -52 -12 -74 0 -32 -4 -42 -20 -46 -16 -4 -20 -14 -20 -44 0
-84 -12 -144 -28 -141 -12 2 -15 17 -13 73 1 39 3 79 4 90 2 15 -4 20 -23 20
-24 0 -25 -2 -28 -82 -4 -116 8 -133 94 -133 l64 0 -5 108 c-4 66 -2 113 4
122 7 11 37 16 108 20 l98 5 5 73 c6 95 16 102 127 102 67 0 83 -3 83 -15 0
-12 -15 -15 -74 -15 -95 0 -106 -10 -106 -91 0 -52 2 -59 20 -59 18 0 20 7 20
55 l0 55 71 0 c62 0 70 -2 67 -17 -2 -14 -15 -19 -54 -21 l-50 -3 4 -34 c3
-26 9 -35 23 -35 10 0 26 -11 35 -25 15 -23 15 -39 0 -217 -27 -321 -23 -298
-62 -298 -37 0 -48 24 -16 32 17 5 20 24 31 159 6 85 14 173 18 197 l5 42
-161 0 -161 0 0 -39 c0 -67 11 -101 31 -101 12 0 23 10 29 25 11 30 65 65 99
65 41 0 90 -38 102 -79 9 -30 8 -44 -5 -74 -8 -21 -22 -40 -31 -43 -12 -5 -15
-24 -15 -95 l0 -89 -120 0 c-95 0 -126 4 -146 16 -23 15 -26 15 -43 0 -15 -14
-35 -16 -107 -14 -51 2 -89 7 -89 13 0 6 36 12 80 15 53 4 90 12 111 25 31 18
31 18 62 -4 28 -19 41 -21 124 -19 l93 3 3 108 3 107 -255 0 -255 0 -3 -122
-3 -123 -123 0 -123 0 -19 30 c-14 22 -16 35 -9 45 8 13 13 11 31 -11 l20 -27
92 53 91 53 5 68 5 69 82 3 82 3 -36 59 c-19 33 -37 60 -40 60 -19 0 -66 -36
-78 -60 -18 -36 -44 -51 -73 -43 -15 4 -53 -12 -122 -51 l-99 -57 16 -34 c12
-26 14 -38 6 -46 -8 -8 -18 0 -37 30 -34 53 -33 65 9 90 l35 20 -7 95 c-3 52
-3 102 1 112 13 35 27 -4 33 -95 3 -50 8 -91 10 -91 2 0 13 5 24 10 21 12 24
49 13 157 l-6 59 -47 -1 c-50 -1 -85 10 -76 26 4 5 122 9 291 9 277 0 284 1
284 20 0 19 -8 20 -287 22 -184 2 -288 7 -288 13 0 6 33 11 73 13 69 3 72 4
72 27 0 26 42 61 60 50 16 -10 12 -35 -6 -35 -9 0 -14 -7 -12 -17 3 -16 21
-18 186 -21 114 -1 190 1 202 8 26 14 25 45 -1 64 -23 16 -17 39 8 34 9 -2 25
-15 36 -31z m-223 -341 c0 -22 -29 -41 -42 -28 -8 8 -8 15 2 27 16 19 40 20
40 1z m-153 -93 c4 -11 -126 -93 -147 -93 -30 0 2 38 60 72 65 37 81 41 87 21z
m312 -47 c7 -9 11 -38 9 -73 l-3 -58 -84 -3 c-61 -2 -87 1 -92 10 -13 20 -11
112 3 126 18 18 152 16 167 -2z m256 -61 l0 -70 -85 0 -85 0 -3 59 c-5 88 -5
87 90 84 l83 -3 0 -70z m-550 35 c0 -16 -102 -79 -127 -80 -35 0 -16 26 45 62
63 38 82 42 82 18z m-132 -302 c3 -13 11 -71 18 -131 7 -59 16 -104 20 -100 3
5 12 53 19 108 18 156 11 145 91 145 l69 0 0 -235 0 -235 -40 0 -40 0 -1 153
c-1 168 -7 164 -34 -25 l-18 -128 -43 0 c-50 0 -44 -15 -75 170 -11 68 -22
127 -25 129 -2 2 -4 -64 -4 -147 l0 -152 -40 0 -40 0 0 235 0 235 69 0 c63 0
69 -2 74 -22z m377 17 c0 -17 32 -280 34 -283 4 -3 26 216 26 256 0 31 1 32
45 32 55 0 53 19 20 -246 -14 -109 -25 -205 -25 -211 0 -9 -20 -13 -65 -13
-59 0 -65 2 -69 23 -5 20 -56 426 -56 441 0 3 20 6 45 6 25 0 45 -2 45 -5z
m410 -40 c0 -41 -2 -45 -25 -45 l-25 0 0 -190 0 -190 -50 0 -50 0 0 190 0 190
-24 0 c-21 0 -24 6 -28 41 -2 22 -2 42 1 45 2 2 49 4 103 4 l98 0 0 -45z m150
-190 l0 -235 -45 0 -45 0 0 235 0 235 45 0 45 0 0 -235z m-370 -375 c0 -49 -1
-50 -30 -50 -37 0 -56 29 -36 55 8 12 20 16 35 12 16 -4 21 -1 21 14 0 10 2
19 5 19 3 0 5 -22 5 -50z m290 0 c0 -48 -1 -50 -29 -50 -39 0 -56 22 -41 50 9
16 18 21 36 17 18 -3 24 0 24 14 0 11 2 19 5 19 3 0 5 -22 5 -50z m250 0 c0
-27 -4 -50 -9 -50 -5 0 -7 15 -6 33 2 17 3 40 4 50 2 39 11 13 11 -33z m-1474
8 l16 -31 19 24 c10 13 19 27 19 32 0 4 5 7 10 7 6 0 9 -21 8 -47 -1 -40 -2
-42 -5 -14 l-5 34 -22 -28 -23 -29 -16 30 -16 29 -1 -32 c0 -18 -5 -33 -10
-33 -7 0 -10 19 -9 45 3 53 12 57 35 13z m224 -14 c0 -30 22 -23 36 11 8 21
17 35 20 32 6 -5 -33 -87 -41 -87 -6 0 -45 77 -45 87 1 13 30 -30 30 -43z
m299 18 c-14 -5 -11 -50 4 -55 7 -4 6 -6 -4 -6 -12 -1 -18 9 -21 33 -5 46 0
59 17 43 7 -7 9 -13 4 -15z m-350 -11 c14 -26 -8 -54 -39 -49 -28 3 -38 31
-20 53 17 21 47 19 59 -4z m148 -33 c-2 -13 -4 -5 -4 17 -1 22 1 32 4 23 2
-10 2 -28 0 -40z m91 40 c19 -19 14 -28 -18 -28 -36 0 -40 -17 -5 -23 23 -4
23 -4 -2 -3 -28 1 -40 22 -29 52 7 17 38 18 54 2z m215 -9 c15 -24 1 -49 -27
-49 -31 0 -48 27 -34 53 11 22 46 19 61 -4z m94 -31 c-2 -13 -4 -5 -4 17 -1
22 1 32 4 23 2 -10 2 -28 0 -40z m100 40 c15 -12 18 -58 3 -58 -5 0 -10 14
-10 31 0 41 -32 36 -41 -6 l-7 -30 -1 35 c-1 30 3 36 21 37 12 1 28 -3 35 -9z
m160 -40 c-2 -13 -4 -5 -4 17 -1 22 1 32 4 23 2 -10 2 -28 0 -40z m65 2 c4 0
8 4 8 8 0 5 7 17 15 28 12 15 12 11 -2 -18 -9 -21 -20 -38 -23 -38 -9 0 -30
47 -29 63 1 7 6 0 12 -15 6 -16 14 -28 19 -28z m65 -2 c-2 -13 -4 -5 -4 17 -1
22 1 32 4 23 2 -10 2 -28 0 -40z m183 -8 c14 0 20 9 23 33 4 31 4 31 5 -6 2
-36 0 -38 -25 -35 -24 2 -28 8 -30 36 -3 32 -3 32 3 2 4 -21 11 -30 24 -30z
m128 23 c3 -26 -1 -33 -14 -33 -13 0 -14 3 -4 15 10 13 9 15 -10 15 -16 0 -20
-4 -16 -15 3 -8 1 -15 -5 -15 -21 0 -3 34 21 40 17 4 21 8 12 14 -7 4 -19 5
-27 2 -8 -3 -15 -1 -15 5 0 6 12 9 28 7 22 -2 28 -8 30 -35z m115 30 c-29 -6
-29 -15 -2 -28 32 -15 28 -30 -6 -32 -20 -1 -23 0 -7 4 27 6 29 23 2 23 -11 0
-20 6 -20 13 0 20 10 27 34 26 19 -2 19 -2 -1 -6z"/>
<path d="M640 1364 c0 -99 4 -108 41 -88 28 14 29 17 29 87 l0 72 -35 1 -35 0
0 -72z"/>
<path d="M750 1373 l0 -63 35 22 c32 21 35 27 33 63 -3 37 -5 40 -35 41 l-33
1 0 -64z"/>
<path d="M855 1431 c-3 -2 -5 -15 -5 -28 0 -19 4 -23 19 -18 13 4 24 -1 35
-17 l16 -22 2 27 c1 15 2 35 2 44 1 13 -7 17 -32 18 -18 0 -35 -1 -37 -4z"/>
<path d="M1168 1433 c-10 -3 -18 -11 -18 -19 0 -11 28 -14 160 -14 130 0 160
3 160 14 0 8 -12 17 -26 20 -27 7 -246 6 -276 -1z"/>
<path d="M1258 1248 l-23 -23 60 -5 c57 -5 60 -7 63 -33 4 -35 22 -25 22 12 0
35 -37 71 -73 71 -15 0 -37 -10 -49 -22z"/>
<path d="M760 1026 c-14 -18 -10 -58 8 -64 8 -2 12 9 12 37 0 45 -2 48 -20 27z"/>
<path d="M680 979 l-25 -20 30 3 c19 2 31 9 33 21 4 22 -7 21 -38 -4z"/>
<path d="M890 1075 c0 -34 1 -35 42 -35 l42 0 -34 35 c-19 19 -38 35 -42 35
-4 0 -8 -16 -8 -35z"/>
<path d="M975 1090 c10 -11 20 -20 22 -20 1 0 3 9 3 20 0 14 -7 20 -22 20 -20
0 -21 -1 -3 -20z"/>
<path d="M1148 1075 c-4 -35 -4 -35 36 -35 l40 0 -34 35 c-19 19 -35 35 -36
35 -1 0 -4 -16 -6 -35z"/>
<path d="M1225 1090 c10 -11 20 -20 22 -20 1 0 3 9 3 20 0 14 -7 20 -22 20
-20 0 -21 -1 -3 -20z"/>
<path d="M1117 224 c-4 -4 -7 -16 -7 -26 0 -14 6 -19 23 -16 14 2 22 10 22 23
0 20 -25 32 -38 19z"/>
<path d="M1407 224 c-4 -4 -7 -16 -7 -26 0 -14 6 -19 23 -16 14 2 22 10 22 23
0 20 -25 32 -38 19z"/>
<path d="M354 216 c-8 -21 3 -36 27 -36 15 0 20 6 17 22 -4 27 -35 37 -44 14z"/>
<path d="M605 220 c-4 -6 5 -10 20 -10 15 0 24 4 20 10 -3 6 -12 10 -20 10 -8
0 -17 -4 -20 -10z"/>
<path d="M817 224 c-4 -4 -7 -16 -7 -26 0 -14 6 -19 23 -16 14 2 22 10 22 23
0 20 -25 32 -38 19z"/>
</g>
</svg>
